#!OML:ASF I:\Actors\actors\Patient Classification 2\Patient 1\Session 1\actor1.ASF
:FULLY-SPECIFIED
:DEGREES
106
root -0.56454 18.7092 5.87119 4.42746 -3.43069 -0.410744
lowerback 0.897231 1.03555 -1.79511
upperback -3.16011 1.33841 0.205828
thorax -3.80036 0.724811 1.16074
lowerneck -11.1768 -1.98555 -2.04086
upperneck 23.3948 -2.96531 2.46454
head 9.25627 -1.30462 0.856827
rclavicle -4.41985e-015 -2.08724e-015
rhumerus -49.4059 -0.849244 -87.1082
rradius 43.0045
rwrist 19.9061
rhand -6.64838 -36.9648
rfingers 7.12502
rthumb 19.209 -66.0361
lclavicle -4.41985e-015 -2.08724e-015
lhumerus -40.6369 1.8838 89.135
lradius 34.6589
lwrist -10.3938
lhand -4.48995 -26.2688
lfingers 7.12502
lthumb 21.2834 2.58254
rfemur 3.14208 5.62116 13.2457
rtibia 7.95139e-015
rfoot -16.7728 -11.5804
rtoes -7.11065
lfemur -5.4007 -7.09993 -14.0497
ltibia 19.9447
lfoot -23.2846 15.012
ltoes -55.413
107
root -0.563893 18.7085 5.87244 4.42831 -3.43453 -0.431952
lowerback 0.901043 1.01755 -1.7954
upperback -3.15756 1.3151 0.230147
thorax -3.79968 0.713585 1.18692
lowerneck -11.1495 -1.96114 -2.10035
upperneck 23.387 -2.93273 2.5219
head 9.24938 -1.28878 0.890488
rclavicle 1.36696e-014 3.47873e-015
rhumerus -49.4074 -0.778447 -87.1262
rradius 42.9737
rwrist 19.9098
rhand -6.74373 -36.9001
rfingers 7.12502
rthumb 19.1173 -65.9805
lclavicle 1.36696e-014 3.47873e-015
lhumerus -40.6686 1.9225 89.1384
lradius 34.6841
lwrist -10.3464
lhand -4.47499 -26.2721
lfingers 7.12502
lthumb 21.2978 2.57761
rfemur 3.14531 5.62663 13.2669
rtibia 1.27222e-014
rfoot -16.7746 -11.5542
rtoes -7.15053
lfemur -5.39167 -7.1428 -14.0354
ltibia 19.9452
lfoot -23.3017 15.0622
ltoes -55.401
108
root -0.563709 18.7082 5.87361 4.45182 -3.43758 -0.432693
lowerback 0.897661 1.01157 -1.81062
upperback -3.15641 1.30718 0.243611
thorax -3.79701 0.710303 1.20973
lowerneck -11.1581 -1.95186 -2.14394
upperneck 23.3763 -2.91825 2.55562
head 9.24809 -1.28219 0.910974
rclavicle 1.38932e-014 1.65985e-014
rhumerus -49.3861 -0.706565 -87.1426
rradius 42.9488
rwrist 19.8291
rhand -6.89626 -36.9008
rfingers 7.12502
rthumb 18.9706 -65.9957
lclavicle 1.38932e-014 1.65985e-014
lhumerus -40.6692 1.94871 89.1459
lradius 34.6977
lwrist -10.3213
lhand -4.41774 -26.2388
lfingers 7.12502
lthumb 21.3528 2.60475
rfemur 3.12248 5.62695 13.2646
rtibia -7.95139e-015
rfoot -16.7441 -11.5652
rtoes -7.30243
lfemur -5.40616 -7.19728 -14.0395
ltibia 19.9469
lfoot -23.3533 15.1091
ltoes -55.3698
109
root -0.563774 18.7085 5.87494 4.48749 -3.43379 -0.422292
lowerback 0.893503 1.0192 -1.82202
upperback -3.16041 1.31684 0.235095
thorax -3.79922 0.71537 1.20695
lowerneck -11.1923 -1.96056 -2.16292
upperneck 23.3856 -2.93735 2.60191
head 9.25932 -1.28741 0.927623
rclavicle -8.17813e-015 9.14409e-015
rhumerus -49.3759 -0.708842 -87.1402
rradius 42.9424
rwrist 19.775
rhand -6.99254 -36.8299
rfingers 7.12502
rthumb 18.878 -65.9338
lclavicle -8.17813e-015 9.14409e-015
lhumerus -40.675 1.90533 89.1637
lradius 34.7213
lwrist -10.3048
lhand -4.43101 -26.1801
lfingers 7.12502
lthumb 21.34 2.6649
rfemur 3.08692 5.61812 13.2509
rtibia 1.59028e-015
rfoot -16.706 -11.6008
rtoes -7.48916
lfemur -5.43795 -7.22408 -14.0478
ltibia 19.9475
lfoot -23.3824 15.1197
ltoes -55.3613
110
root -0.563953 18.7081 5.87663 4.49899 -3.43416 -0.418245
lowerback 0.915297 1.02393 -1.81675
upperback -3.16388 1.32237 0.220084
thorax -3.81486 0.717858 1.18785
lowerneck -11.2175 -1.96736 -2.17239
upperneck 23.4046 -2.95658 2.6492
head 9.27216 -1.29179 0.943093
rclavicle -5.94801e-015 5.26779e-015
rhumerus -49.3827 -0.736971 -87.1493
rradius 42.9405
rwrist 19.7808
rhand -7.03931 -36.7829
rfingers 7.12502
rthumb 18.833 -65.8912
lclavicle -5.94801e-015 5.26779e-015
lhumerus -40.6963 1.85416 89.1655
lradius 34.7467
lwrist -10.2794
lhand -4.48352 -26.1106
lfingers 7.12502
lthumb 21.2896 2.74009
rfemur 3.08166 5.61677 13.2448
rtibia 4.77083e-015
rfoot -16.7307 -11.5873
rtoes -7.32466
lfemur -5.44469 -7.21006 -14.0494
ltibia 19.9495
lfoot -23.3786 15.0948
ltoes -55.3456
111
root -0.564142 18.7071 5.87922 4.50816 -3.46351 -0.421046
lowerback 0.940663 1.0359 -1.79822
upperback -3.18141 1.33781 0.205837
thorax -3.84713 0.725125 1.16144
lowerneck -11.2065 -1.96934 -2.16589
upperneck 23.45 -2.95769 2.63088
head 9.28556 -1.29359 0.935766
rclavicle 1.72073e-015 1.799e-014
rhumerus -49.4257 -0.786846 -87.1547
rradius 42.9379
rwrist 19.8124
rhand -7.04464 -36.812
rfingers 7.12502
rthumb 18.8279 -65.9208
lclavicle 1.72073e-015 1.799e-014
lhumerus -40.7576 1.81122 89.1556
lradius 34.783
lwrist -10.2479
lhand -4.4927 -26.0293
lfingers 7.12502
lthumb 21.2808 2.82242
rfemur 3.07483 5.64498 13.244
rtibia 6.36111e-015
rfoot -16.7757 -11.5474
rtoes -6.99296
lfemur -5.44406 -7.19081 -14.05
ltibia 19.9513
lfoot -23.3468 15.1347
ltoes -55.4098
112
root -0.564604 18.7075 5.88227 4.5221 -3.47873 -0.414328
lowerback 0.958635 1.04277 -1.80598
upperback -3.20352 1.34625 0.206132
thorax -3.88078 0.730003 1.16511
lowerneck -11.1737 -1.96497 -2.1785
upperneck 23.4853 -2.94225 2.59796
head 9.29096 -1.29113 0.928711
rclavicle 9.33977e-015 1.73937e-014
rhumerus -49.4988 -0.809316 -87.1413
rradius 42.9638
rwrist 19.8175
rhand -7.04212 -36.8605
rfingers 7.12502
rthumb 18.8303 -65.9691
lclavicle 9.33977e-015 1.73937e-014
lhumerus -40.8271 1.79839 89.1598
lradius 34.8163
lwrist -10.2574
lhand -4.48206 -25.9693
lfingers 7.12502
lthumb 21.291 2.88121
rfemur 3.06602 5.65785 13.2364
rtibia -1.59028e-015
rfoot -16.7737 -11.5452
rtoes -7.03178
lfemur -5.45451 -7.15943 -14.0557
ltibia 19.9518
lfoot -23.3089 15.1682
ltoes -55.5135
113
root -0.564714 18.7081 5.88505 4.51589 -3.45965 -0.410585
lowerback 0.97043 1.03805 -1.81284
upperback -3.18592 1.34005 0.217632
thorax -3.86944 0.727101 1.18105
lowerneck -11.2175 -1.97145 -2.20933
upperneck 23.5011 -2.93736 2.56947
head 9.30469 -1.29412 0.924339
rclavicle 5.39514e-015 -9.74045e-015
rhumerus -49.5049 -0.803769 -87.1207
rradius 42.9906
rwrist 19.8123
rhand -7.05181 -36.8918
rfingers 7.12502
rthumb 18.821 -66.0013
lclavicle 5.39514e-015 -9.74045e-015
lhumerus -40.8066 1.86534 89.1618
lradius 34.792
lwrist -10.3452
lhand -4.48271 -25.9384
lfingers 7.12502
lthumb 21.2904 2.91217
rfemur 3.08717 5.63939 13.2368
rtibia 6.36111e-015
rfoot -16.7653 -11.549
rtoes -7.23771
lfemur -5.44864 -7.15657 -14.058
ltibia 19.9557
lfoot -23.3098 15.1546
ltoes -55.5074
